<mxfile host="app.diagrams.net" modified="2023-01-31T04:35:50.819Z" agent="5.0 (Windows NT 10.0; Win64; x64) AppleWebKit/537.36 (KHTML, like Gecko) Chrome/108.0.0.0 Safari/537.36" etag="S-uL8NbX6uN2FrvP3evm" version="20.8.13" type="github">
  <diagram name="第 1 页" id="d0AM14grGcBHoypMYFwT">
    <mxGraphModel dx="1373" dy="672" grid="1" gridSize="10" guides="1" tooltips="1" connect="1" arrows="1" fold="1" page="1" pageScale="1" pageWidth="827" pageHeight="1169" math="0" shadow="0">
      <root>
        <mxCell id="0" />
        <mxCell id="1" parent="0" />
        <UserObject label="" treeRoot="1" id="rEAQ6jnLLTIDA4DRHlVP-129">
          <mxCell style="whiteSpace=wrap;html=1;align=center;treeFolding=1;treeMoving=1;newEdgeStyle={&quot;edgeStyle&quot;:&quot;elbowEdgeStyle&quot;,&quot;startArrow&quot;:&quot;none&quot;,&quot;endArrow&quot;:&quot;none&quot;};fillColor=#FFFFFF;strokeColor=#d6b656;" vertex="1" parent="1">
            <mxGeometry x="503" y="428" width="40" height="30" as="geometry" />
          </mxCell>
        </UserObject>
        <UserObject label="" treeRoot="1" id="rEAQ6jnLLTIDA4DRHlVP-31">
          <mxCell style="whiteSpace=wrap;html=1;align=center;treeFolding=1;treeMoving=1;newEdgeStyle={&quot;edgeStyle&quot;:&quot;elbowEdgeStyle&quot;,&quot;startArrow&quot;:&quot;none&quot;,&quot;endArrow&quot;:&quot;none&quot;};fillColor=#FFFFFF;strokeColor=#d6b656;" vertex="1" parent="1">
            <mxGeometry x="623" y="155" width="40" height="30" as="geometry" />
          </mxCell>
        </UserObject>
        <mxCell id="rEAQ6jnLLTIDA4DRHlVP-32" value="" style="endArrow=none;html=1;rounded=0;fillColor=#dae8fc;strokeColor=#6c8ebf;" edge="1" parent="1">
          <mxGeometry width="50" height="50" relative="1" as="geometry">
            <mxPoint x="451" y="185" as="sourcePoint" />
            <mxPoint x="761" y="185" as="targetPoint" />
          </mxGeometry>
        </mxCell>
        <mxCell id="rEAQ6jnLLTIDA4DRHlVP-33" value="" style="ellipse;whiteSpace=wrap;html=1;aspect=fixed;fillColor=#dae8fc;strokeColor=#6c8ebf;" vertex="1" parent="1">
          <mxGeometry x="531" y="125" width="20" height="20" as="geometry" />
        </mxCell>
        <mxCell id="rEAQ6jnLLTIDA4DRHlVP-34" value="" style="endArrow=none;html=1;rounded=0;entryX=0.5;entryY=1;entryDx=0;entryDy=0;fillColor=#dae8fc;strokeColor=#6c8ebf;" edge="1" parent="1" target="rEAQ6jnLLTIDA4DRHlVP-33">
          <mxGeometry width="50" height="50" relative="1" as="geometry">
            <mxPoint x="541" y="165" as="sourcePoint" />
            <mxPoint x="761" y="185" as="targetPoint" />
          </mxGeometry>
        </mxCell>
        <mxCell id="rEAQ6jnLLTIDA4DRHlVP-35" value="" style="endArrow=none;html=1;rounded=0;entryX=0.5;entryY=1;entryDx=0;entryDy=0;fillColor=#dae8fc;strokeColor=#6c8ebf;" edge="1" parent="1">
          <mxGeometry width="50" height="50" relative="1" as="geometry">
            <mxPoint x="531" y="185" as="sourcePoint" />
            <mxPoint x="540.71" y="165" as="targetPoint" />
          </mxGeometry>
        </mxCell>
        <mxCell id="rEAQ6jnLLTIDA4DRHlVP-36" value="" style="endArrow=none;html=1;rounded=0;fillColor=#dae8fc;strokeColor=#6c8ebf;" edge="1" parent="1">
          <mxGeometry width="50" height="50" relative="1" as="geometry">
            <mxPoint x="551" y="185" as="sourcePoint" />
            <mxPoint x="541" y="165" as="targetPoint" />
          </mxGeometry>
        </mxCell>
        <mxCell id="rEAQ6jnLLTIDA4DRHlVP-37" value="" style="endArrow=none;dashed=1;html=1;rounded=0;fillColor=#fff2cc;strokeColor=#d6b656;startArrow=classic;startFill=1;entryX=1;entryY=0.5;entryDx=0;entryDy=0;" edge="1" parent="1" target="rEAQ6jnLLTIDA4DRHlVP-33">
          <mxGeometry width="50" height="50" relative="1" as="geometry">
            <mxPoint x="711" y="219" as="sourcePoint" />
            <mxPoint x="551" y="75" as="targetPoint" />
          </mxGeometry>
        </mxCell>
        <mxCell id="rEAQ6jnLLTIDA4DRHlVP-38" value="" style="endArrow=none;html=1;rounded=0;fillColor=#dae8fc;strokeColor=#6c8ebf;" edge="1" parent="1">
          <mxGeometry width="50" height="50" relative="1" as="geometry">
            <mxPoint x="451" y="215" as="sourcePoint" />
            <mxPoint x="481" y="185" as="targetPoint" />
          </mxGeometry>
        </mxCell>
        <mxCell id="rEAQ6jnLLTIDA4DRHlVP-39" value="" style="endArrow=none;html=1;rounded=0;fillColor=#dae8fc;strokeColor=#6c8ebf;" edge="1" parent="1">
          <mxGeometry width="50" height="50" relative="1" as="geometry">
            <mxPoint x="491" y="215" as="sourcePoint" />
            <mxPoint x="521" y="185" as="targetPoint" />
          </mxGeometry>
        </mxCell>
        <mxCell id="rEAQ6jnLLTIDA4DRHlVP-40" value="" style="endArrow=none;html=1;rounded=0;fillColor=#dae8fc;strokeColor=#6c8ebf;" edge="1" parent="1">
          <mxGeometry width="50" height="50" relative="1" as="geometry">
            <mxPoint x="531" y="215" as="sourcePoint" />
            <mxPoint x="561" y="185" as="targetPoint" />
          </mxGeometry>
        </mxCell>
        <mxCell id="rEAQ6jnLLTIDA4DRHlVP-41" value="" style="endArrow=none;html=1;rounded=0;fillColor=#dae8fc;strokeColor=#6c8ebf;" edge="1" parent="1">
          <mxGeometry width="50" height="50" relative="1" as="geometry">
            <mxPoint x="571" y="215" as="sourcePoint" />
            <mxPoint x="601" y="185" as="targetPoint" />
          </mxGeometry>
        </mxCell>
        <mxCell id="rEAQ6jnLLTIDA4DRHlVP-42" value="" style="endArrow=none;html=1;rounded=0;fillColor=#dae8fc;strokeColor=#6c8ebf;startArrow=none;" edge="1" parent="1" source="rEAQ6jnLLTIDA4DRHlVP-47">
          <mxGeometry width="50" height="50" relative="1" as="geometry">
            <mxPoint x="611" y="215" as="sourcePoint" />
            <mxPoint x="641" y="185" as="targetPoint" />
          </mxGeometry>
        </mxCell>
        <mxCell id="rEAQ6jnLLTIDA4DRHlVP-43" value="" style="endArrow=none;html=1;rounded=0;fillColor=#dae8fc;strokeColor=#6c8ebf;" edge="1" parent="1">
          <mxGeometry width="50" height="50" relative="1" as="geometry">
            <mxPoint x="651" y="215" as="sourcePoint" />
            <mxPoint x="681" y="185" as="targetPoint" />
          </mxGeometry>
        </mxCell>
        <mxCell id="rEAQ6jnLLTIDA4DRHlVP-44" value="" style="endArrow=none;html=1;rounded=0;fillColor=#dae8fc;strokeColor=#6c8ebf;" edge="1" parent="1">
          <mxGeometry width="50" height="50" relative="1" as="geometry">
            <mxPoint x="691" y="215" as="sourcePoint" />
            <mxPoint x="721" y="185" as="targetPoint" />
          </mxGeometry>
        </mxCell>
        <mxCell id="rEAQ6jnLLTIDA4DRHlVP-45" value="" style="endArrow=none;html=1;rounded=0;fillColor=#dae8fc;strokeColor=#6c8ebf;" edge="1" parent="1">
          <mxGeometry width="50" height="50" relative="1" as="geometry">
            <mxPoint x="731" y="215" as="sourcePoint" />
            <mxPoint x="761" y="185" as="targetPoint" />
          </mxGeometry>
        </mxCell>
        <mxCell id="rEAQ6jnLLTIDA4DRHlVP-46" value="" style="endArrow=none;html=1;rounded=0;fillColor=#dae8fc;strokeColor=#6c8ebf;" edge="1" parent="1" target="rEAQ6jnLLTIDA4DRHlVP-47">
          <mxGeometry width="50" height="50" relative="1" as="geometry">
            <mxPoint x="611" y="215" as="sourcePoint" />
            <mxPoint x="641" y="185" as="targetPoint" />
          </mxGeometry>
        </mxCell>
        <mxCell id="rEAQ6jnLLTIDA4DRHlVP-47" value="" style="shape=waypoint;sketch=0;fillStyle=solid;size=6;pointerEvents=1;points=[];fillColor=none;resizable=0;rotatable=0;perimeter=centerPerimeter;snapToPoint=1;strokeColor=#EA6B66;" vertex="1" parent="1">
          <mxGeometry x="633" y="175" width="20" height="20" as="geometry" />
        </mxCell>
        <UserObject label="" treeRoot="1" id="rEAQ6jnLLTIDA4DRHlVP-48">
          <mxCell style="whiteSpace=wrap;html=1;align=center;treeFolding=1;treeMoving=1;newEdgeStyle={&quot;edgeStyle&quot;:&quot;elbowEdgeStyle&quot;,&quot;startArrow&quot;:&quot;none&quot;,&quot;endArrow&quot;:&quot;none&quot;};fillColor=#FFFFFF;strokeColor=#d6b656;" vertex="1" parent="1">
            <mxGeometry x="318" y="84" width="40" height="30" as="geometry" />
          </mxCell>
        </UserObject>
        <mxCell id="rEAQ6jnLLTIDA4DRHlVP-49" value="" style="endArrow=none;html=1;rounded=0;fillColor=#dae8fc;strokeColor=#6c8ebf;" edge="1" parent="1">
          <mxGeometry width="50" height="50" relative="1" as="geometry">
            <mxPoint x="80" y="187" as="sourcePoint" />
            <mxPoint x="270" y="187" as="targetPoint" />
          </mxGeometry>
        </mxCell>
        <mxCell id="rEAQ6jnLLTIDA4DRHlVP-50" value="" style="ellipse;whiteSpace=wrap;html=1;aspect=fixed;fillColor=#dae8fc;strokeColor=#6c8ebf;" vertex="1" parent="1">
          <mxGeometry x="160" y="127" width="20" height="20" as="geometry" />
        </mxCell>
        <mxCell id="rEAQ6jnLLTIDA4DRHlVP-51" value="" style="endArrow=none;html=1;rounded=0;entryX=0.5;entryY=1;entryDx=0;entryDy=0;fillColor=#dae8fc;strokeColor=#6c8ebf;" edge="1" parent="1" target="rEAQ6jnLLTIDA4DRHlVP-50">
          <mxGeometry width="50" height="50" relative="1" as="geometry">
            <mxPoint x="170" y="167" as="sourcePoint" />
            <mxPoint x="390" y="187" as="targetPoint" />
          </mxGeometry>
        </mxCell>
        <mxCell id="rEAQ6jnLLTIDA4DRHlVP-52" value="" style="endArrow=none;html=1;rounded=0;entryX=0.5;entryY=1;entryDx=0;entryDy=0;fillColor=#dae8fc;strokeColor=#6c8ebf;" edge="1" parent="1">
          <mxGeometry width="50" height="50" relative="1" as="geometry">
            <mxPoint x="160" y="187" as="sourcePoint" />
            <mxPoint x="169.71000000000004" y="167" as="targetPoint" />
          </mxGeometry>
        </mxCell>
        <mxCell id="rEAQ6jnLLTIDA4DRHlVP-53" value="" style="endArrow=none;html=1;rounded=0;fillColor=#dae8fc;strokeColor=#6c8ebf;" edge="1" parent="1">
          <mxGeometry width="50" height="50" relative="1" as="geometry">
            <mxPoint x="180" y="187" as="sourcePoint" />
            <mxPoint x="170" y="167" as="targetPoint" />
          </mxGeometry>
        </mxCell>
        <mxCell id="rEAQ6jnLLTIDA4DRHlVP-54" value="" style="endArrow=none;dashed=1;html=1;rounded=0;fillColor=#fff2cc;strokeColor=#d6b656;startArrow=classic;startFill=1;entryX=1;entryY=0.5;entryDx=0;entryDy=0;" edge="1" parent="1" target="rEAQ6jnLLTIDA4DRHlVP-50">
          <mxGeometry width="50" height="50" relative="1" as="geometry">
            <mxPoint x="340" y="100" as="sourcePoint" />
            <mxPoint x="180" y="77" as="targetPoint" />
          </mxGeometry>
        </mxCell>
        <mxCell id="rEAQ6jnLLTIDA4DRHlVP-56" value="" style="endArrow=none;html=1;rounded=0;fillColor=#dae8fc;strokeColor=#6c8ebf;" edge="1" parent="1">
          <mxGeometry width="50" height="50" relative="1" as="geometry">
            <mxPoint x="80" y="217" as="sourcePoint" />
            <mxPoint x="110" y="187" as="targetPoint" />
          </mxGeometry>
        </mxCell>
        <mxCell id="rEAQ6jnLLTIDA4DRHlVP-57" value="" style="endArrow=none;html=1;rounded=0;fillColor=#dae8fc;strokeColor=#6c8ebf;" edge="1" parent="1">
          <mxGeometry width="50" height="50" relative="1" as="geometry">
            <mxPoint x="120" y="217" as="sourcePoint" />
            <mxPoint x="150" y="187" as="targetPoint" />
          </mxGeometry>
        </mxCell>
        <mxCell id="rEAQ6jnLLTIDA4DRHlVP-58" value="" style="endArrow=none;html=1;rounded=0;fillColor=#dae8fc;strokeColor=#6c8ebf;" edge="1" parent="1">
          <mxGeometry width="50" height="50" relative="1" as="geometry">
            <mxPoint x="160" y="217" as="sourcePoint" />
            <mxPoint x="190" y="187" as="targetPoint" />
          </mxGeometry>
        </mxCell>
        <mxCell id="rEAQ6jnLLTIDA4DRHlVP-59" value="" style="endArrow=none;html=1;rounded=0;fillColor=#dae8fc;strokeColor=#6c8ebf;" edge="1" parent="1">
          <mxGeometry width="50" height="50" relative="1" as="geometry">
            <mxPoint x="200" y="217" as="sourcePoint" />
            <mxPoint x="230" y="187" as="targetPoint" />
          </mxGeometry>
        </mxCell>
        <mxCell id="rEAQ6jnLLTIDA4DRHlVP-60" value="" style="endArrow=none;html=1;rounded=0;fillColor=#dae8fc;strokeColor=#6c8ebf;" edge="1" parent="1">
          <mxGeometry width="50" height="50" relative="1" as="geometry">
            <mxPoint x="240" y="217" as="sourcePoint" />
            <mxPoint x="270" y="187" as="targetPoint" />
          </mxGeometry>
        </mxCell>
        <mxCell id="rEAQ6jnLLTIDA4DRHlVP-61" value="" style="endArrow=none;html=1;rounded=0;fillColor=#dae8fc;strokeColor=#6c8ebf;" edge="1" parent="1">
          <mxGeometry width="50" height="50" relative="1" as="geometry">
            <mxPoint x="280" y="217" as="sourcePoint" />
            <mxPoint x="310" y="187" as="targetPoint" />
          </mxGeometry>
        </mxCell>
        <mxCell id="rEAQ6jnLLTIDA4DRHlVP-62" value="" style="endArrow=none;html=1;rounded=0;fillColor=#dae8fc;strokeColor=#6c8ebf;" edge="1" parent="1">
          <mxGeometry width="50" height="50" relative="1" as="geometry">
            <mxPoint x="290" y="187" as="sourcePoint" />
            <mxPoint x="390" y="187" as="targetPoint" />
          </mxGeometry>
        </mxCell>
        <mxCell id="rEAQ6jnLLTIDA4DRHlVP-63" value="" style="endArrow=none;html=1;rounded=0;strokeColor=#006EAF;fontColor=#006EAF;startArrow=none;" edge="1" parent="1" source="rEAQ6jnLLTIDA4DRHlVP-68">
          <mxGeometry width="50" height="50" relative="1" as="geometry">
            <mxPoint x="270" y="187" as="sourcePoint" />
            <mxPoint x="270" y="107" as="targetPoint" />
          </mxGeometry>
        </mxCell>
        <mxCell id="rEAQ6jnLLTIDA4DRHlVP-64" value="" style="endArrow=none;html=1;rounded=0;strokeColor=#006EAF;fontColor=#006EAF;" edge="1" parent="1">
          <mxGeometry width="50" height="50" relative="1" as="geometry">
            <mxPoint x="290" y="187" as="sourcePoint" />
            <mxPoint x="290" y="107" as="targetPoint" />
          </mxGeometry>
        </mxCell>
        <mxCell id="rEAQ6jnLLTIDA4DRHlVP-65" value="" style="endArrow=none;html=1;rounded=0;strokeColor=#006EAF;fontColor=#006EAF;" edge="1" parent="1">
          <mxGeometry width="50" height="50" relative="1" as="geometry">
            <mxPoint x="270" y="107" as="sourcePoint" />
            <mxPoint x="290" y="107" as="targetPoint" />
          </mxGeometry>
        </mxCell>
        <mxCell id="rEAQ6jnLLTIDA4DRHlVP-66" value="" style="endArrow=none;html=1;rounded=0;fillColor=#dae8fc;strokeColor=#6c8ebf;" edge="1" parent="1">
          <mxGeometry width="50" height="50" relative="1" as="geometry">
            <mxPoint x="320" y="217" as="sourcePoint" />
            <mxPoint x="350" y="187" as="targetPoint" />
          </mxGeometry>
        </mxCell>
        <mxCell id="rEAQ6jnLLTIDA4DRHlVP-68" value="" style="shape=waypoint;sketch=0;fillStyle=solid;size=6;pointerEvents=1;points=[];fillColor=none;resizable=0;rotatable=0;perimeter=centerPerimeter;snapToPoint=1;strokeColor=#EA6B66;fontColor=#006EAF;" vertex="1" parent="1">
          <mxGeometry x="260" y="106" width="20" height="20" as="geometry" />
        </mxCell>
        <mxCell id="rEAQ6jnLLTIDA4DRHlVP-70" value="maxRange" style="text;html=1;strokeColor=none;fillColor=none;align=center;verticalAlign=middle;whiteSpace=wrap;rounded=0;fontColor=#006EAF;" vertex="1" parent="1">
          <mxGeometry x="273" y="50" width="60" height="30" as="geometry" />
        </mxCell>
        <mxCell id="rEAQ6jnLLTIDA4DRHlVP-71" value="maxRange" style="text;html=1;strokeColor=none;fillColor=none;align=center;verticalAlign=middle;whiteSpace=wrap;rounded=0;fontColor=#006EAF;" vertex="1" parent="1">
          <mxGeometry x="694" y="229" width="60" height="30" as="geometry" />
        </mxCell>
        <mxCell id="rEAQ6jnLLTIDA4DRHlVP-72" value="" style="endArrow=none;html=1;rounded=0;strokeColor=#006EAF;fontColor=#006EAF;" edge="1" parent="1">
          <mxGeometry width="50" height="50" relative="1" as="geometry">
            <mxPoint x="269.76" y="187" as="sourcePoint" />
            <mxPoint x="269.76" y="107" as="targetPoint" />
          </mxGeometry>
        </mxCell>
        <UserObject label="" treeRoot="1" id="rEAQ6jnLLTIDA4DRHlVP-73">
          <mxCell style="whiteSpace=wrap;html=1;align=center;treeFolding=1;treeMoving=1;newEdgeStyle={&quot;edgeStyle&quot;:&quot;elbowEdgeStyle&quot;,&quot;startArrow&quot;:&quot;none&quot;,&quot;endArrow&quot;:&quot;none&quot;};fillColor=#FFFFFF;strokeColor=#d6b656;" vertex="1" parent="1">
            <mxGeometry x="142" y="422" width="40" height="30" as="geometry" />
          </mxCell>
        </UserObject>
        <mxCell id="rEAQ6jnLLTIDA4DRHlVP-74" value="" style="endArrow=none;html=1;rounded=0;fillColor=#dae8fc;strokeColor=#6c8ebf;" edge="1" parent="1">
          <mxGeometry width="50" height="50" relative="1" as="geometry">
            <mxPoint x="90" y="459" as="sourcePoint" />
            <mxPoint x="280" y="459" as="targetPoint" />
          </mxGeometry>
        </mxCell>
        <mxCell id="rEAQ6jnLLTIDA4DRHlVP-75" value="" style="ellipse;whiteSpace=wrap;html=1;aspect=fixed;fillColor=#dae8fc;strokeColor=#6c8ebf;" vertex="1" parent="1">
          <mxGeometry x="240" y="302" width="20" height="20" as="geometry" />
        </mxCell>
        <mxCell id="rEAQ6jnLLTIDA4DRHlVP-76" value="" style="endArrow=none;html=1;rounded=0;entryX=0.5;entryY=1;entryDx=0;entryDy=0;fillColor=#dae8fc;strokeColor=#6c8ebf;" edge="1" parent="1" target="rEAQ6jnLLTIDA4DRHlVP-75">
          <mxGeometry width="50" height="50" relative="1" as="geometry">
            <mxPoint x="250" y="342" as="sourcePoint" />
            <mxPoint x="470" y="362" as="targetPoint" />
          </mxGeometry>
        </mxCell>
        <mxCell id="rEAQ6jnLLTIDA4DRHlVP-77" value="" style="endArrow=none;html=1;rounded=0;entryX=0.5;entryY=1;entryDx=0;entryDy=0;fillColor=#dae8fc;strokeColor=#6c8ebf;" edge="1" parent="1">
          <mxGeometry width="50" height="50" relative="1" as="geometry">
            <mxPoint x="240" y="362" as="sourcePoint" />
            <mxPoint x="249.71000000000004" y="342" as="targetPoint" />
          </mxGeometry>
        </mxCell>
        <mxCell id="rEAQ6jnLLTIDA4DRHlVP-78" value="" style="endArrow=none;html=1;rounded=0;fillColor=#dae8fc;strokeColor=#6c8ebf;" edge="1" parent="1">
          <mxGeometry width="50" height="50" relative="1" as="geometry">
            <mxPoint x="260" y="362" as="sourcePoint" />
            <mxPoint x="250" y="342" as="targetPoint" />
          </mxGeometry>
        </mxCell>
        <mxCell id="rEAQ6jnLLTIDA4DRHlVP-79" value="" style="endArrow=none;dashed=1;html=1;rounded=0;fillColor=#fff2cc;strokeColor=#d6b656;startArrow=classic;startFill=1;entryX=0;entryY=0.5;entryDx=0;entryDy=0;" edge="1" parent="1" target="rEAQ6jnLLTIDA4DRHlVP-75">
          <mxGeometry width="50" height="50" relative="1" as="geometry">
            <mxPoint x="160" y="440" as="sourcePoint" />
            <mxPoint x="190" y="349" as="targetPoint" />
          </mxGeometry>
        </mxCell>
        <mxCell id="rEAQ6jnLLTIDA4DRHlVP-80" value="" style="endArrow=none;html=1;rounded=0;fillColor=#dae8fc;strokeColor=#6c8ebf;" edge="1" parent="1">
          <mxGeometry width="50" height="50" relative="1" as="geometry">
            <mxPoint x="90" y="489" as="sourcePoint" />
            <mxPoint x="120" y="459" as="targetPoint" />
          </mxGeometry>
        </mxCell>
        <mxCell id="rEAQ6jnLLTIDA4DRHlVP-81" value="" style="endArrow=none;html=1;rounded=0;fillColor=#dae8fc;strokeColor=#6c8ebf;" edge="1" parent="1">
          <mxGeometry width="50" height="50" relative="1" as="geometry">
            <mxPoint x="130" y="489" as="sourcePoint" />
            <mxPoint x="160" y="459" as="targetPoint" />
          </mxGeometry>
        </mxCell>
        <mxCell id="rEAQ6jnLLTIDA4DRHlVP-82" value="" style="endArrow=none;html=1;rounded=0;fillColor=#dae8fc;strokeColor=#6c8ebf;" edge="1" parent="1">
          <mxGeometry width="50" height="50" relative="1" as="geometry">
            <mxPoint x="170" y="489" as="sourcePoint" />
            <mxPoint x="200" y="459" as="targetPoint" />
          </mxGeometry>
        </mxCell>
        <mxCell id="rEAQ6jnLLTIDA4DRHlVP-83" value="" style="endArrow=none;html=1;rounded=0;fillColor=#dae8fc;strokeColor=#6c8ebf;" edge="1" parent="1">
          <mxGeometry width="50" height="50" relative="1" as="geometry">
            <mxPoint x="210" y="489" as="sourcePoint" />
            <mxPoint x="240" y="459" as="targetPoint" />
          </mxGeometry>
        </mxCell>
        <mxCell id="rEAQ6jnLLTIDA4DRHlVP-84" value="" style="endArrow=none;html=1;rounded=0;fillColor=#dae8fc;strokeColor=#6c8ebf;" edge="1" parent="1">
          <mxGeometry width="50" height="50" relative="1" as="geometry">
            <mxPoint x="250" y="489" as="sourcePoint" />
            <mxPoint x="280" y="459" as="targetPoint" />
          </mxGeometry>
        </mxCell>
        <mxCell id="rEAQ6jnLLTIDA4DRHlVP-85" value="" style="endArrow=none;html=1;rounded=0;fillColor=#dae8fc;strokeColor=#6c8ebf;" edge="1" parent="1">
          <mxGeometry width="50" height="50" relative="1" as="geometry">
            <mxPoint x="280" y="490" as="sourcePoint" />
            <mxPoint x="310" y="460" as="targetPoint" />
          </mxGeometry>
        </mxCell>
        <mxCell id="rEAQ6jnLLTIDA4DRHlVP-86" value="" style="endArrow=none;html=1;rounded=0;fillColor=#dae8fc;strokeColor=#6c8ebf;" edge="1" parent="1">
          <mxGeometry width="50" height="50" relative="1" as="geometry">
            <mxPoint x="310" y="460" as="sourcePoint" />
            <mxPoint x="400" y="460" as="targetPoint" />
          </mxGeometry>
        </mxCell>
        <mxCell id="rEAQ6jnLLTIDA4DRHlVP-89" value="" style="endArrow=none;html=1;rounded=0;strokeColor=#006EAF;fontColor=#006EAF;" edge="1" parent="1">
          <mxGeometry width="50" height="50" relative="1" as="geometry">
            <mxPoint x="280" y="379" as="sourcePoint" />
            <mxPoint x="160" y="379" as="targetPoint" />
          </mxGeometry>
        </mxCell>
        <mxCell id="rEAQ6jnLLTIDA4DRHlVP-90" value="" style="endArrow=none;html=1;rounded=0;fillColor=#dae8fc;strokeColor=#6c8ebf;" edge="1" parent="1">
          <mxGeometry width="50" height="50" relative="1" as="geometry">
            <mxPoint x="160" y="379" as="sourcePoint" />
            <mxPoint x="160" y="362" as="targetPoint" />
          </mxGeometry>
        </mxCell>
        <mxCell id="rEAQ6jnLLTIDA4DRHlVP-92" value="maxRange" style="text;html=1;strokeColor=none;fillColor=none;align=center;verticalAlign=middle;whiteSpace=wrap;rounded=0;fontColor=#006EAF;" vertex="1" parent="1">
          <mxGeometry x="81" y="406" width="60" height="30" as="geometry" />
        </mxCell>
        <mxCell id="rEAQ6jnLLTIDA4DRHlVP-93" value="" style="endArrow=none;html=1;rounded=0;strokeColor=#006EAF;fontColor=#006EAF;" edge="1" parent="1">
          <mxGeometry width="50" height="50" relative="1" as="geometry">
            <mxPoint x="279.76" y="459" as="sourcePoint" />
            <mxPoint x="279.76" y="379" as="targetPoint" />
          </mxGeometry>
        </mxCell>
        <mxCell id="rEAQ6jnLLTIDA4DRHlVP-94" value="" style="endArrow=none;html=1;rounded=0;strokeColor=#006EAF;fontColor=#006EAF;startArrow=none;" edge="1" parent="1" source="rEAQ6jnLLTIDA4DRHlVP-91">
          <mxGeometry width="50" height="50" relative="1" as="geometry">
            <mxPoint x="310" y="362" as="sourcePoint" />
            <mxPoint x="160" y="362" as="targetPoint" />
          </mxGeometry>
        </mxCell>
        <mxCell id="rEAQ6jnLLTIDA4DRHlVP-95" value="" style="endArrow=none;html=1;rounded=0;strokeColor=#006EAF;fontColor=#006EAF;" edge="1" parent="1">
          <mxGeometry width="50" height="50" relative="1" as="geometry">
            <mxPoint x="310" y="460" as="sourcePoint" />
            <mxPoint x="309.71" y="362" as="targetPoint" />
          </mxGeometry>
        </mxCell>
        <mxCell id="rEAQ6jnLLTIDA4DRHlVP-98" value="" style="endArrow=none;html=1;rounded=0;strokeColor=#006EAF;fontColor=#006EAF;" edge="1" parent="1" target="rEAQ6jnLLTIDA4DRHlVP-91">
          <mxGeometry width="50" height="50" relative="1" as="geometry">
            <mxPoint x="310" y="362" as="sourcePoint" />
            <mxPoint x="160" y="362" as="targetPoint" />
          </mxGeometry>
        </mxCell>
        <mxCell id="rEAQ6jnLLTIDA4DRHlVP-91" value="" style="shape=waypoint;sketch=0;fillStyle=solid;size=6;pointerEvents=1;points=[];fillColor=none;resizable=0;rotatable=0;perimeter=centerPerimeter;snapToPoint=1;strokeColor=#EA6B66;fontColor=#006EAF;" vertex="1" parent="1">
          <mxGeometry x="200" y="352" width="20" height="20" as="geometry" />
        </mxCell>
        <mxCell id="rEAQ6jnLLTIDA4DRHlVP-99" value="&lt;div style=&quot;text-align: center;&quot;&gt;&lt;span style=&quot;background-color: initial;&quot;&gt;&lt;font color=&quot;#006eaf&quot;&gt;可以穿透建筑物&lt;/font&gt;&lt;/span&gt;&lt;/div&gt;" style="text;whiteSpace=wrap;html=1;" vertex="1" parent="1">
          <mxGeometry x="180" y="224" width="120" height="40" as="geometry" />
        </mxCell>
        <mxCell id="rEAQ6jnLLTIDA4DRHlVP-100" value="&lt;div style=&quot;text-align: center;&quot;&gt;&lt;span style=&quot;background-color: initial;&quot;&gt;&lt;font color=&quot;#006eaf&quot;&gt;不可以穿透地面&lt;/font&gt;&lt;/span&gt;&lt;/div&gt;" style="text;whiteSpace=wrap;html=1;" vertex="1" parent="1">
          <mxGeometry x="531" y="229" width="120" height="40" as="geometry" />
        </mxCell>
        <mxCell id="rEAQ6jnLLTIDA4DRHlVP-101" value="&lt;div style=&quot;text-align: center;&quot;&gt;&lt;font color=&quot;#006eaf&quot;&gt;高层平台可以穿透高层地面&lt;/font&gt;&lt;/div&gt;" style="text;whiteSpace=wrap;html=1;" vertex="1" parent="1">
          <mxGeometry x="150" y="510" width="120" height="40" as="geometry" />
        </mxCell>
        <mxCell id="rEAQ6jnLLTIDA4DRHlVP-103" value="" style="endArrow=none;html=1;rounded=0;fillColor=#dae8fc;strokeColor=#6c8ebf;startArrow=none;" edge="1" parent="1" source="rEAQ6jnLLTIDA4DRHlVP-125">
          <mxGeometry width="50" height="50" relative="1" as="geometry">
            <mxPoint x="459" y="459" as="sourcePoint" />
            <mxPoint x="649" y="459" as="targetPoint" />
          </mxGeometry>
        </mxCell>
        <mxCell id="rEAQ6jnLLTIDA4DRHlVP-104" value="" style="ellipse;whiteSpace=wrap;html=1;aspect=fixed;fillColor=#dae8fc;strokeColor=#6c8ebf;" vertex="1" parent="1">
          <mxGeometry x="609" y="302" width="20" height="20" as="geometry" />
        </mxCell>
        <mxCell id="rEAQ6jnLLTIDA4DRHlVP-105" value="" style="endArrow=none;html=1;rounded=0;entryX=0.5;entryY=1;entryDx=0;entryDy=0;fillColor=#dae8fc;strokeColor=#6c8ebf;" edge="1" parent="1" target="rEAQ6jnLLTIDA4DRHlVP-104">
          <mxGeometry width="50" height="50" relative="1" as="geometry">
            <mxPoint x="619" y="342" as="sourcePoint" />
            <mxPoint x="839" y="362" as="targetPoint" />
          </mxGeometry>
        </mxCell>
        <mxCell id="rEAQ6jnLLTIDA4DRHlVP-106" value="" style="endArrow=none;html=1;rounded=0;entryX=0.5;entryY=1;entryDx=0;entryDy=0;fillColor=#dae8fc;strokeColor=#6c8ebf;" edge="1" parent="1">
          <mxGeometry width="50" height="50" relative="1" as="geometry">
            <mxPoint x="609" y="362" as="sourcePoint" />
            <mxPoint x="618.71" y="342" as="targetPoint" />
          </mxGeometry>
        </mxCell>
        <mxCell id="rEAQ6jnLLTIDA4DRHlVP-107" value="" style="endArrow=none;html=1;rounded=0;fillColor=#dae8fc;strokeColor=#6c8ebf;" edge="1" parent="1">
          <mxGeometry width="50" height="50" relative="1" as="geometry">
            <mxPoint x="629" y="362" as="sourcePoint" />
            <mxPoint x="619" y="342" as="targetPoint" />
          </mxGeometry>
        </mxCell>
        <mxCell id="rEAQ6jnLLTIDA4DRHlVP-108" value="" style="endArrow=none;dashed=1;html=1;rounded=0;fillColor=#fff2cc;strokeColor=#d6b656;startArrow=classic;startFill=1;entryX=0;entryY=0.5;entryDx=0;entryDy=0;" edge="1" parent="1" target="rEAQ6jnLLTIDA4DRHlVP-104">
          <mxGeometry width="50" height="50" relative="1" as="geometry">
            <mxPoint x="510" y="480" as="sourcePoint" />
            <mxPoint x="559" y="349" as="targetPoint" />
          </mxGeometry>
        </mxCell>
        <mxCell id="rEAQ6jnLLTIDA4DRHlVP-109" value="" style="endArrow=none;html=1;rounded=0;fillColor=#dae8fc;strokeColor=#6c8ebf;" edge="1" parent="1">
          <mxGeometry width="50" height="50" relative="1" as="geometry">
            <mxPoint x="459" y="489" as="sourcePoint" />
            <mxPoint x="489" y="459" as="targetPoint" />
          </mxGeometry>
        </mxCell>
        <mxCell id="rEAQ6jnLLTIDA4DRHlVP-110" value="" style="endArrow=none;html=1;rounded=0;fillColor=#dae8fc;strokeColor=#6c8ebf;" edge="1" parent="1">
          <mxGeometry width="50" height="50" relative="1" as="geometry">
            <mxPoint x="499" y="489" as="sourcePoint" />
            <mxPoint x="529" y="459" as="targetPoint" />
          </mxGeometry>
        </mxCell>
        <mxCell id="rEAQ6jnLLTIDA4DRHlVP-111" value="" style="endArrow=none;html=1;rounded=0;fillColor=#dae8fc;strokeColor=#6c8ebf;" edge="1" parent="1">
          <mxGeometry width="50" height="50" relative="1" as="geometry">
            <mxPoint x="539" y="489" as="sourcePoint" />
            <mxPoint x="569" y="459" as="targetPoint" />
          </mxGeometry>
        </mxCell>
        <mxCell id="rEAQ6jnLLTIDA4DRHlVP-112" value="" style="endArrow=none;html=1;rounded=0;fillColor=#dae8fc;strokeColor=#6c8ebf;" edge="1" parent="1">
          <mxGeometry width="50" height="50" relative="1" as="geometry">
            <mxPoint x="579" y="489" as="sourcePoint" />
            <mxPoint x="609" y="459" as="targetPoint" />
          </mxGeometry>
        </mxCell>
        <mxCell id="rEAQ6jnLLTIDA4DRHlVP-113" value="" style="endArrow=none;html=1;rounded=0;fillColor=#dae8fc;strokeColor=#6c8ebf;" edge="1" parent="1">
          <mxGeometry width="50" height="50" relative="1" as="geometry">
            <mxPoint x="619" y="489" as="sourcePoint" />
            <mxPoint x="649" y="459" as="targetPoint" />
          </mxGeometry>
        </mxCell>
        <mxCell id="rEAQ6jnLLTIDA4DRHlVP-114" value="" style="endArrow=none;html=1;rounded=0;fillColor=#dae8fc;strokeColor=#6c8ebf;" edge="1" parent="1">
          <mxGeometry width="50" height="50" relative="1" as="geometry">
            <mxPoint x="649" y="490" as="sourcePoint" />
            <mxPoint x="679" y="460" as="targetPoint" />
          </mxGeometry>
        </mxCell>
        <mxCell id="rEAQ6jnLLTIDA4DRHlVP-115" value="" style="endArrow=none;html=1;rounded=0;fillColor=#dae8fc;strokeColor=#6c8ebf;" edge="1" parent="1">
          <mxGeometry width="50" height="50" relative="1" as="geometry">
            <mxPoint x="679" y="460" as="sourcePoint" />
            <mxPoint x="769" y="460" as="targetPoint" />
          </mxGeometry>
        </mxCell>
        <mxCell id="rEAQ6jnLLTIDA4DRHlVP-116" value="" style="endArrow=none;html=1;rounded=0;strokeColor=#006EAF;fontColor=#006EAF;" edge="1" parent="1">
          <mxGeometry width="50" height="50" relative="1" as="geometry">
            <mxPoint x="649" y="379" as="sourcePoint" />
            <mxPoint x="529" y="379" as="targetPoint" />
          </mxGeometry>
        </mxCell>
        <mxCell id="rEAQ6jnLLTIDA4DRHlVP-117" value="" style="endArrow=none;html=1;rounded=0;fillColor=#dae8fc;strokeColor=#6c8ebf;" edge="1" parent="1">
          <mxGeometry width="50" height="50" relative="1" as="geometry">
            <mxPoint x="529" y="379" as="sourcePoint" />
            <mxPoint x="529" y="362" as="targetPoint" />
          </mxGeometry>
        </mxCell>
        <mxCell id="rEAQ6jnLLTIDA4DRHlVP-118" value="maxRange" style="text;html=1;strokeColor=none;fillColor=none;align=center;verticalAlign=middle;whiteSpace=wrap;rounded=0;fontColor=#006EAF;" vertex="1" parent="1">
          <mxGeometry x="471" y="480" width="60" height="30" as="geometry" />
        </mxCell>
        <mxCell id="rEAQ6jnLLTIDA4DRHlVP-119" value="" style="endArrow=none;html=1;rounded=0;strokeColor=#006EAF;fontColor=#006EAF;" edge="1" parent="1">
          <mxGeometry width="50" height="50" relative="1" as="geometry">
            <mxPoint x="648.76" y="459" as="sourcePoint" />
            <mxPoint x="648.76" y="379" as="targetPoint" />
          </mxGeometry>
        </mxCell>
        <mxCell id="rEAQ6jnLLTIDA4DRHlVP-120" value="" style="endArrow=none;html=1;rounded=0;strokeColor=#006EAF;fontColor=#006EAF;startArrow=none;" edge="1" parent="1" source="rEAQ6jnLLTIDA4DRHlVP-123">
          <mxGeometry width="50" height="50" relative="1" as="geometry">
            <mxPoint x="679" y="362" as="sourcePoint" />
            <mxPoint x="529" y="362" as="targetPoint" />
          </mxGeometry>
        </mxCell>
        <mxCell id="rEAQ6jnLLTIDA4DRHlVP-121" value="" style="endArrow=none;html=1;rounded=0;strokeColor=#006EAF;fontColor=#006EAF;" edge="1" parent="1">
          <mxGeometry width="50" height="50" relative="1" as="geometry">
            <mxPoint x="679" y="460" as="sourcePoint" />
            <mxPoint x="678.71" y="362" as="targetPoint" />
          </mxGeometry>
        </mxCell>
        <mxCell id="rEAQ6jnLLTIDA4DRHlVP-122" value="" style="endArrow=none;html=1;rounded=0;strokeColor=#006EAF;fontColor=#006EAF;" edge="1" parent="1" target="rEAQ6jnLLTIDA4DRHlVP-123">
          <mxGeometry width="50" height="50" relative="1" as="geometry">
            <mxPoint x="679" y="362" as="sourcePoint" />
            <mxPoint x="529" y="362" as="targetPoint" />
          </mxGeometry>
        </mxCell>
        <mxCell id="rEAQ6jnLLTIDA4DRHlVP-123" value="" style="shape=waypoint;sketch=0;fillStyle=solid;size=6;pointerEvents=1;points=[];fillColor=none;resizable=0;rotatable=0;perimeter=centerPerimeter;snapToPoint=1;strokeColor=#EA6B66;fontColor=#006EAF;" vertex="1" parent="1">
          <mxGeometry x="569" y="352" width="20" height="20" as="geometry" />
        </mxCell>
        <mxCell id="rEAQ6jnLLTIDA4DRHlVP-126" value="" style="endArrow=none;html=1;rounded=0;fillColor=#dae8fc;strokeColor=#6c8ebf;" edge="1" parent="1" target="rEAQ6jnLLTIDA4DRHlVP-125">
          <mxGeometry width="50" height="50" relative="1" as="geometry">
            <mxPoint x="459.0000000000002" y="459" as="sourcePoint" />
            <mxPoint x="649.0000000000002" y="459" as="targetPoint" />
          </mxGeometry>
        </mxCell>
        <mxCell id="rEAQ6jnLLTIDA4DRHlVP-125" value="" style="shape=waypoint;sketch=0;fillStyle=solid;size=6;pointerEvents=1;points=[];fillColor=none;resizable=0;rotatable=0;perimeter=centerPerimeter;snapToPoint=1;strokeColor=#EA6B66;" vertex="1" parent="1">
          <mxGeometry x="512" y="449" width="20" height="20" as="geometry" />
        </mxCell>
        <mxCell id="rEAQ6jnLLTIDA4DRHlVP-130" value="&lt;div style=&quot;text-align: center;&quot;&gt;&lt;font color=&quot;#006eaf&quot;&gt;高层平台不可以穿透地面&lt;/font&gt;&lt;/div&gt;" style="text;whiteSpace=wrap;html=1;" vertex="1" parent="1">
          <mxGeometry x="543" y="510" width="120" height="40" as="geometry" />
        </mxCell>
      </root>
    </mxGraphModel>
  </diagram>
</mxfile>
